Coordinates
version=1
nRows=17
nColumns=36
inDegrees=yes

Units are S.I. units (second, meters, Newtons, ...)
If the header above contains a line with 'inDegrees', this indicates whether rotational values are in degrees (yes) or radians (no).

endheader
time	pelvis_tilt	pelvis_list	pelvis_rotation	pelvis_tx	pelvis_ty	pelvis_tz	hip_flexion_r	hip_adduction_r	hip_rotation_r	knee_angle_r	knee_angle_r_beta	ankle_angle_r	subtalar_angle_r	mtp_angle_r	hip_flexion_l	hip_adduction_l	hip_rotation_l	knee_angle_l	knee_angle_l_beta	ankle_angle_l	subtalar_angle_l	mtp_angle_l	lumbar_extension	lumbar_bending	lumbar_rotation	arm_flex_r	arm_add_r	arm_rot_r	elbow_flex_r	pro_sup_r	arm_flex_l	arm_add_l	arm_rot_l	elbow_flex_l	pro_sup_l
      2.46666670	     -3.75152224	      3.28353006	     -2.84410279	      0.99375349	      0.80743721	     -0.62111210	     42.90630507	     -0.08474998	      3.40749874	     69.94545362	      1.22077846	     23.58351517	     -8.74879872	     -7.49999987	     40.42864832	     -3.31268674	      0.91666388	     67.23527134	      1.17347686	     20.68114742	    -11.91391118	     -7.49999987	    -11.75658007	     -4.49152545	      1.25206267	    -31.55914929	    -14.72239814	     -2.19269022	     17.38474471	     70.13852303	    -30.89317451	    -15.56454750	    -25.23441753	     41.70832513	     89.86423820
      2.48333330	     -3.54073412	      3.35549727	     -2.92453994	      0.99757976	      0.79049338	     -0.62416963	     46.45756883	      0.75464901	      4.63418995	     77.59790549	      1.35433894	     27.15668176	     -9.76818510	     -7.49999987	     44.33552148	     -2.79142640	      1.89389126	     75.60785321	      1.31960598	     24.83311408	    -12.56175430	     -7.49999987	    -14.65657732	     -4.25145613	     -0.30247285	    -22.60940922	    -13.57241799	      1.52069382	     16.31934660	     70.27424614	    -21.33617093	    -14.26636346	    -17.06302806	     34.81123493	     90.90783600
      2.50000000	     -2.81087992	      3.34759736	     -3.03249702	      0.99172435	      0.77515115	     -0.62848526	     48.42431971	      1.35203966	      5.50231272	     82.81271554	      1.44535455	     28.88901989	    -10.85037626	     -7.49999987	     46.37128377	     -2.09748697	      2.58886601	     81.09172230	      1.41531755	     26.82552092	    -13.31211017	     -7.49999987	    -18.61912143	     -4.33322480	     -0.58003088	    -13.61509221	    -11.71589201	      5.92890532	     15.78112243	     67.68249434	    -11.69662505	    -13.52866375	     -8.55653738	     29.78710199	     87.62969936
      2.51666670	     -2.54244280	      3.58466537	     -3.26272586	      0.98817846	      0.74449387	     -0.62901432	     50.85682653	      1.52726987	      6.16520621	     87.53218111	      1.52772476	     30.42201125	    -11.49243662	     -7.49999987	     48.69935272	     -1.59507550	      2.67788791	     85.81655004	      1.49778135	     28.94766370	    -13.53288290	     -7.49999987	    -22.53275739	     -4.63555418	     -1.12327683	     -6.47946048	    -10.08954525	      7.06534437	     17.26180615	     67.31403826	     -5.54288907	    -12.57681725	     -7.21534296	     28.46594186	     86.90647657
      2.53333330	     -2.29481567	      3.72585765	     -3.39742535	      0.97593861	      0.72691281	     -0.63059795	     52.62894674	      1.44750585	      6.40202731	     90.66104452	      1.58233373	     31.93850405	    -11.67614494	     -7.49999987	     50.33377678	     -1.37415812	      2.56598348	     88.99216644	      1.55320631	     31.18556377	    -12.93014140	     -7.49999987	    -27.84756283	     -4.03426052	     -2.18349898	      2.39458378	    -10.11940166	      8.02959418	     19.66883099	     66.55045635	      2.56059285	    -11.13216437	     -5.20661115	     26.28366522	     84.99886803
      2.55000000	     -2.08134713	      3.73081484	     -3.76488791	      0.98448965	      0.71566916	     -0.63041606	     53.61822436	      1.59999541	      6.52366260	     93.05276229	      1.62407708	     32.95704386	    -12.08955933	     -7.49999987	     51.03226436	     -1.59805764	      2.40800669	     91.25979985	      1.59278398	     32.93550023	    -12.26195254	     -7.49999987	    -33.72776473	     -3.72064994	     -1.94633897	     10.11681736	    -10.27059616	      9.43823437	     19.86207665	     66.68135962	     10.23304556	    -10.71441557	     -3.11104693	     22.06168453	     85.22799786
      2.56666670	     -4.21504424	      3.88832741	     -3.99475677	      0.98007787	      0.70283290	     -0.62777721	     56.83141878	      1.72317681	      6.43049372	     94.60137911	      1.65110554	     33.92828276	    -12.44487389	     -7.49999987	     53.85844693	     -1.98301617	      2.20071768	     92.95477627	      1.62236690	     33.64081589	    -12.40609264	     -7.49999987	    -36.80394771	     -3.89900760	     -1.86813197	     18.17225051	    -10.39572196	      9.50726390	     22.05419394	     66.70571765	     17.82895095	    -11.01928045	     -2.68043788	     23.83141271	     85.16359577
      2.58333330	     -7.24533475	      3.51000982	     -4.59068953	      0.97794988	      0.70075863	     -0.63150430	     60.27997226	      2.16522801	      5.86116655	     94.72614684	      1.65328315	     34.78719069	    -11.93247260	     -7.49999987	     57.31417767	     -3.15597697	      2.14414518	     93.92105392	      1.63923163	     34.58535562	    -11.13933214	     -7.49999987	    -38.13825176	     -3.34539461	      0.02114180	     26.56857461	    -13.01255512	     15.42832778	     26.73221340	     68.21391010	     28.60378165	    -11.91061473	      7.74240095	     24.42924614	     84.88732420
      2.60000000	     -9.94879296	      3.19077488	     -5.00753840	      0.98617108	      0.69735170	     -0.62696557	     62.85675400	      2.52023983	      5.17403184	     94.56168892	      1.65041282	     35.58038321	    -11.14950938	     -7.49999987	     59.90866864	     -4.40833693	      1.98993675	     94.09063341	      1.64219135	     34.75805756	    -10.37798311	     -7.49999987	    -38.52716508	     -3.20759019	      1.15211545	     35.31153209	    -13.20366271	     15.38069191	     29.44939532	     69.13697431	     36.28121276	    -13.06255138	      9.50712957	     27.01317086	     84.47398406
      2.61666670	    -12.59724239	      3.18362164	     -5.55897767	      0.98866650	      0.69854377	     -0.62811569	     64.86586823	      2.64842871	      4.81495580	     93.38448844	      1.62986679	     35.75491618	    -10.76626976	     -7.49999987	     61.74583182	     -5.22963778	      1.66033712	     93.23019354	      1.62717384	     34.71877780	    -10.22754504	     -7.49999987	    -38.08673059	     -3.05876515	      2.17737344	     45.34187403	    -13.44974450	     15.17150828	     33.02525036	     69.49510473	     44.87527018	    -13.55021969	      9.68582899	     29.57184447	     84.31520766
      2.63333330	    -15.22507321	      3.10258213	     -5.54835517	      0.98402601	      0.69320380	     -0.63551381	     67.17694358	      2.10980256	      4.17375352	     92.29055567	      1.61077406	     35.89827024	    -10.09380421	     -7.49999987	     64.15396207	     -5.57351343	      1.53051448	     92.59379324	      1.61606656	     34.75795221	     -9.74866385	     -7.49999987	    -36.87923083	     -2.50644697	      4.80723795	     54.06455152	    -16.79165317	     18.80284336	     35.92026523	     74.57745134	     54.80001173	    -12.43620205	     17.28310400	     30.98524143	     87.42639602
      2.65000000	    -17.40156614	      3.07311977	     -5.26417576	      0.99009702	      0.69208205	     -0.63118016	     69.25968117	      1.66531320	      3.54112236	     91.86887388	      1.60341433	     36.24721746	     -9.00162704	     -7.49999987	     66.13715209	     -5.55269665	      1.77851160	     91.96503221	      1.60509261	     34.61000857	     -9.96352963	     -7.49999987	    -34.99905262	     -2.12762583	      6.17383029	     61.65825391	    -17.43305328	     18.20153397	     39.39353612	     76.28671758	     61.54798776	    -12.28837663	     19.45883411	     36.33485401	     88.32556769
      2.66666670	    -18.53705671	      3.27034666	     -5.25616633	      1.00394706	      0.69806507	     -0.63048794	     69.51830971	      1.22132128	      3.42878511	     91.07839822	      1.58961793	     36.31926796	     -8.08024374	     -7.49999987	     66.37335403	     -5.36633733	      1.78392054	     91.17283576	      1.59126617	     33.61349511	    -10.34975662	     -7.49999987	    -32.94961874	     -2.18150416	      6.67490792	     66.70709262	    -18.22782350	     19.62414076	     44.33196680	     78.25355469	     65.42610320	    -13.40983822	     23.10725536	     43.40689147	     88.97262994
      2.68333330	    -19.67143736	      3.48303632	     -5.42270057	      1.00389463	      0.71152342	     -0.64097434	     69.26732555	      0.51317147	      3.39255304	     88.99862403	      1.55331902	     35.44392255	     -7.58392111	     -7.49999987	     66.06363599	     -4.81453182	      1.67179813	     89.38257205	      1.56002018	     32.57074881	    -10.39441720	     -7.49999987	    -30.29644325	     -1.98919267	      6.72343266	     70.95249805	    -18.84134670	     20.37620810	     51.15898493	     79.63941203	     67.12817596	    -15.93314651	     26.34732764	     56.69292866	     87.20547596
      2.70000000	    -20.05742783	      3.36222042	     -5.60961640	      1.01488797	      0.72013286	     -0.63166920	     67.77499248	      0.30591299	      3.05270310	     86.80086622	      1.51496091	     34.69737267	     -6.89456522	     -7.49999987	     64.59405768	     -4.43685555	      2.08720193	     87.27288246	      1.52319915	     30.83300601	    -11.25160023	     -7.49999987	    -28.18052379	     -1.24543091	      5.57320568	     75.65651211	    -17.23392337	     22.47690177	     56.38745219	     85.06887707	     64.85465261	    -21.32741902	     23.57982097	     74.80866700	     87.56773402
      2.71666670	    -19.69790177	      3.42960893	     -6.13665077	      1.03680742	      0.73568787	     -0.63970823	     64.78719928	      0.00154605	      3.16999083	     84.25098550	      1.47045709	     33.86527891	     -6.22445040	     -7.49999987	     61.48314580	     -3.92376816	      2.22381701	     84.41185164	      1.47326474	     28.91111709	    -11.78339636	     -7.49999987	    -25.29416144	     -0.97055599	      4.49447677	     77.35885208	    -17.16578903	     23.81799688	     66.21115707	     87.63480110	     61.85471252	    -26.03144182	     19.47679659	     91.51033431	     88.46966109
      2.73333330	    -18.98286161	      3.65623388	     -6.57290963	      1.05689039	      0.75843622	     -0.64301441	     60.68068290	     -0.36595925	      3.69421590	     80.79944326	      1.41021632	     32.54603899	     -6.13143977	     -7.49999987	     57.20092029	     -3.08642091	      2.20357307	     80.37066773	      1.40273277	     26.18440752	    -12.91835319	     -7.49999987	    -22.56498177	     -1.31770409	      4.30305951	     76.44132368	    -19.73501724	     25.07284608	     77.13387407	     86.15164094	     59.78204120	    -29.26801701	     18.26160815	    105.33972517	     86.48795723
